<svg xmlns="http://www.w3.org/2000/svg" height="24px" viewBox="0 -960 960 960" width="24px">
    <path fill="#3DDC84" d="M40-240q9-107 65.5-197T256-580l-74-128q-6-9-3-19t13-15q8-5 18-2t16 12l74 128q86-36 180-36t180 36l74-128q6-9 16-12t18 2q10 5 13 15t-3 19l-74 128q94 53 150.5 143T920-240H40Zm240-110q21 0 35.5-14.5T330-400q0-21-14.5-35.5T280-450q-21 0-35.5 14.5T230-400q0 21 14.5 35.5T280-350Zm400 0q21 0 35.5-14.5T730-400q0-21-14.5-35.5T680-450q-21 0-35.5 14.5T630-400q0 21 14.5 35.5T680-350Z"/>
    <g transform="translate(370, -500) scale(15)">
        <path fill-rule="evenodd" clip-rule="evenodd" d="M15 8C15 11.866 11.866 15 8 15C4.13401 15 1 11.866 1 8C1 4.13401 4.13401 1 8 1C11.866 1 15 4.13401 15 8ZM13.1998 10.9957C12.163 12.7915 10.2226 14 8 14C5.7792 14 3.84021 12.7935 2.80276 11.0001H8.06395C8.11134 11.0001 8.14294 10.9837 8.14294 10.9402V9.45061C8.14294 9.40726 8.11134 9.39864 8.06395 9.39864H6.83944V8.45438H8.16383C8.28473 8.45438 8.81022 8.48913 8.97825 9.16472C8.99704 9.23894 9.02386 9.37285 9.05417 9.52422C9.10873 9.79666 9.17463 10.1257 9.2254 10.2648C9.30412 10.5074 9.62465 11.0001 9.96618 11.0001L12.1253 10.9957H13.1998ZM13.8423 9.37264H11.9086C11.6406 9.37264 11.3378 9.2406 11.2773 8.89856C11.1597 8.23319 10.8995 8.02164 10.5005 7.7055L10.4727 7.68344C10.9877 7.35446 11.5237 6.86914 11.5237 6.21953C11.5237 5.51808 11.0456 5.07626 10.7197 4.85958C10.2625 4.55646 9.75626 4.49573 9.6197 4.49573L3.12906 4.49581C4.2185 2.98411 5.99433 2 8 2C11.3137 2 14 4.68629 14 8C14 8.47228 13.9454 8.93181 13.8423 9.37264ZM2.32225 6.05506C2.11337 6.66499 2 7.31926 2 8C2 8.463 2.05244 8.91376 2.15172 9.34665H4.5369V6.05498L2.32225 6.05506ZM6.83972 6.08973V7.05996L8.44271 7.05983C8.78412 7.05983 9.1993 6.93864 9.1993 6.60064C9.1993 6.19355 8.658 6.08973 8.5687 6.08973H6.83972Z" fill="#6C707E"/>
    </g>
</svg>